<?xml version="1.0" standalone="no"?>
<!DOCTYPE svg PUBLIC "-//W3C//DTD SVG 20010904//EN"
 "http://www.w3.org/TR/2001/REC-SVG-20010904/DTD/svg10.dtd">
<svg version="1.0" xmlns="http://www.w3.org/2000/svg"
 width="700.000000pt" height="700.000000pt" viewBox="0 0 700.000000 700.000000"
 preserveAspectRatio="xMidYMid meet">
<metadata>
Created by potrace 1.14, written by Peter Selinger 2001-2017
</metadata>
<g transform="translate(0.000000,700.000000) scale(0.100000,-0.100000)"
fill="#000000" stroke="none">
<path d="M5565 6691 c-17 -10 -63 -52 -103 -93 -76 -77 -98 -121 -82 -163 5
-13 90 -105 189 -204 100 -100 181 -184 181 -189 0 -4 -126 -133 -280 -287
l-280 -280 -468 467 c-257 257 -478 471 -493 477 -54 20 -73 5 -310 -232 -127
-126 -235 -240 -240 -253 -4 -13 -6 -37 -3 -53 8 -39 2157 -2196 2198 -2207
14 -3 37 -3 50 0 26 6 443 417 482 473 46 68 52 60 -463 575 l-468 468 280
280 c154 154 283 280 287 280 4 0 89 -81 188 -180 99 -99 191 -185 204 -190
44 -16 86 6 169 87 43 43 85 91 94 107 33 63 38 57 -505 599 -279 279 -516
513 -527 520 -30 20 -67 19 -100 -2z"/>
<path d="M3222 4924 c-222 -223 -402 -407 -400 -409 1 -2 162 -163 356 -357
241 -242 355 -363 361 -384 6 -20 4 -40 -4 -60 -13 -32 -174 -195 -201 -204
-54 -19 -69 -8 -437 359 -196 196 -359 358 -362 360 -5 4 -569 -559 -564 -564
2 -2 164 -165 360 -362 370 -372 379 -383 358 -441 -12 -31 -185 -199 -211
-204 -57 -11 -80 8 -437 366 -279 280 -358 353 -370 346 -40 -22 -392 -392
-437 -460 -85 -126 -137 -255 -164 -406 -10 -60 -14 -228 -5 -289 7 -53 15
-129 20 -180 3 -27 9 -84 15 -125 5 -41 12 -100 15 -130 8 -80 15 -137 22
-205 4 -33 7 -79 8 -102 l0 -42 -425 -426 -425 -426 0 -44 c0 -42 4 -49 85
-130 113 -114 145 -131 198 -100 15 9 214 203 442 431 l415 415 65 -6 c36 -3
79 -8 95 -10 17 -2 57 -7 90 -10 33 -3 74 -8 90 -10 17 -2 57 -7 90 -10 33 -3
74 -8 90 -10 17 -2 55 -7 86 -10 31 -3 67 -8 80 -11 53 -13 345 -12 404 1 155
33 261 77 390 163 50 34 388 365 1243 1220 l1174 1174 -849 849 c-466 467
-850 848 -853 848 -3 0 -187 -182 -408 -405z"/>
</g>
</svg>
